<?xml version="1.0"?>
<svg xmlns="http://www.w3.org/2000/svg" height="512px" viewBox="0 0 368 368" width="512px"><path d="m360 0h-352c-4.425781 0-8 3.585938-8 8v352c0 4.425781 3.574219 8 8 8h352c4.425781 0 8-3.574219 8-8v-352c0-4.414062-3.574219-8-8-8zm-8 352h-336v-336h336zm0 0" fill="#FFFFFF"/><path d="m56 320h256c4.425781 0 8-3.574219 8-8v-256c0-4.414062-3.574219-8-8-8h-256c-4.425781 0-8 3.585938-8 8v256c0 4.425781 3.574219 8 8 8zm8-128h112v112h-112zm128 112v-112h112v112zm112-128h-112v-112h112zm-128-112v112h-112v-112zm0 0" fill="#FFFFFF"/></svg>
