<?xml version="1.0"?>
<svg xmlns="http://www.w3.org/2000/svg" height="512px" viewBox="0 -56 480 480" width="512px"><path d="m456 128h-57.199219l9.199219-119.390625c.167969-2.226563-.597656-4.421875-2.117188-6.054687-1.519531-1.636719-3.652343-2.5625005-5.882812-2.554688h-128c-2.230469-.0078125-4.363281.917969-5.882812 2.554688-1.519532 1.632812-2.285157 3.828124-2.117188 6.054687l9.199219 119.390625h-66.398438l9.199219-119.390625c.167969-2.226563-.597656-4.421875-2.117188-6.054687-1.519531-1.636719-3.652343-2.5625005-5.882812-2.554688h-128c-2.230469-.0078125-4.363281.917969-5.882812 2.554688-1.519532 1.632812-2.285157 3.828124-2.117188 6.054687l9.199219 119.390625h-57.199219c-13.253906 0-24 10.746094-24 24v208c0 4.417969 3.582031 8 8 8h32c4.417969 0 8-3.582031 8-8v-184h36.910156l2.578125 33.601562c-9.308593 3.53125-15.472656 12.441407-15.488281 22.398438v14.238281c-5.070312 4.515625-7.980469 10.972657-8 17.761719v96c0 4.417969 3.582031 8 8 8s8-3.582031 8-8v-96c0-4.417969 3.582031-8 8-8h112c4.417969 0 8 3.582031 8 8v96c0 4.417969 3.582031 8 8 8s8-3.582031 8-8v-96c-.019531-6.789062-2.929688-13.246094-8-17.761719v-14.238281c-.015625-9.957031-6.179688-18.867188-15.488281-22.398438l2.578125-33.601562h73.820312l2.578125 33.601562c-9.308593 3.53125-15.472656 12.441407-15.488281 22.398438v14.238281c-5.070312 4.515625-7.980469 10.972657-8 17.761719v96c0 4.417969 3.582031 8 8 8s8-3.582031 8-8v-96c0-4.417969 3.582031-8 8-8h112c4.417969 0 8 3.582031 8 8v96c0 4.417969 3.582031 8 8 8s8-3.582031 8-8v-96c-.019531-6.789062-2.929688-13.246094-8-17.761719v-14.238281c-.015625-9.957031-6.179688-18.867188-15.488281-22.398438l2.578125-33.601562h36.910156v184c0 4.417969 3.582031 8 8 8h32c4.417969 0 8-3.582031 8-8v-208c0-13.253906-10.746094-24-24-24zm-175.359375-112h110.71875l-8.605469 112h-93.507812zm-192 0h110.71875l-8.605469 112h-93.507812zm-.640625 224v-8c0-4.417969 3.582031-8 8-8h96c4.417969 0 8 3.582031 8 8v8zm96.59375-32h-81.1875l-2.445312-32h86.078124zm95.40625 32v-8c0-4.417969 3.582031-8 8-8h96c4.417969 0 8 3.582031 8 8v8zm96.59375-32h-81.1875l-2.445312-32h86.078124zm87.40625 144h-16v-184c0-4.417969-3.582031-8-8-8h-400c-4.417969 0-8 3.582031-8 8v184h-16v-200c0-4.417969 3.582031-8 8-8h432c4.417969 0 8 3.582031 8 8zm0 0" fill="#FFFFFF"/></svg>
