<?xml version="1.0" encoding="iso-8859-1"?>
<!-- Generator: Adobe Illustrator 19.0.0, SVG Export Plug-In . SVG Version: 6.00 Build 0)  -->
<svg xmlns="http://www.w3.org/2000/svg" xmlns:xlink="http://www.w3.org/1999/xlink" version="1.1" id="Capa_1" x="0px" y="0px" viewBox="0 0 512 512" style="enable-background:new 0 0 512 512;" xml:space="preserve" width="512px" height="512px">
<g>
	<g>
		<path d="M392.975,250.622l-65.798-65.798c-0.002,0-0.003-0.001-0.003-0.002l-65.798-65.798c-2.97-2.97-7.784-2.97-10.753,0    l-65.798,65.798c-0.001,0.001-0.002,0.002-0.003,0.002l-65.798,65.798c-2.97,2.97-2.97,7.784,0,10.753l65.798,65.798    c0.001,0.001,0.002,0.002,0.003,0.002l65.798,65.798c1.484,1.484,3.431,2.227,5.377,2.227c1.946,0,3.892-0.742,5.376-2.227    l65.798-65.798c0.001-0.001,0.002-0.002,0.003-0.002l65.798-65.798C395.944,258.406,395.944,253.591,392.975,250.622z     M182.596,303.442L135.155,256l47.442-47.442V303.442z M255.999,135.156l47.442,47.442h-94.883L255.999,135.156z M255.999,376.844    l-47.442-47.442h94.883L255.999,376.844z M314.195,314.195h-116.39V197.805h116.39V314.195z M329.403,303.442v-94.883L376.844,256    L329.403,303.442z" fill="#FFFFFF"/>
	</g>
</g>
<g>
	<g>
		<path d="M444.568,7.604c0-4.199-3.405-7.604-7.604-7.604s-7.604,3.405-7.604,7.604v31.727h-14.953V7.604    c0-4.199-3.405-7.604-7.604-7.604s-7.604,3.405-7.604,7.604v31.727h-14.953V7.604c0-4.199-3.405-7.604-7.604-7.604    c-4.199,0-7.604,3.405-7.604,7.604v31.727h-14.953V7.604c0-4.199-3.405-7.604-7.604-7.604s-7.604,3.405-7.604,7.604v31.727    h-14.953V7.604c0-4.199-3.405-7.604-7.604-7.604s-7.604,3.405-7.604,7.604v31.727h-2.978c-0.052,0-0.103,0-0.155,0h-11.82V7.604    c0-4.199-3.405-7.604-7.604-7.604s-7.604,3.405-7.604,7.604v31.727h-14.951V7.604c0-4.199-3.405-7.604-7.604-7.604    s-7.604,3.405-7.604,7.604v31.727h-14.953V7.604c0-4.199-3.405-7.604-7.604-7.604c-4.199,0-7.604,3.405-7.604,7.604v31.727    h-11.816c-0.05,0-0.1,0-0.15,0h-2.987V7.604c0-4.199-3.405-7.604-7.604-7.604s-7.604,3.405-7.604,7.604v31.727H173.12V7.604    c0-4.199-3.405-7.604-7.604-7.604c-4.199,0-7.604,3.405-7.604,7.604v31.727h-14.953V7.604c0-4.199-3.405-7.604-7.604-7.604    s-7.604,3.405-7.604,7.604v31.727h-14.953V7.604c0-4.199-3.405-7.604-7.604-7.604s-7.604,3.405-7.604,7.604v31.727H82.638V7.604    C82.638,3.405,79.233,0,75.034,0c-4.199,0-7.604,3.405-7.604,7.604v248.394c0,0.001,0,0.003,0,0.005v35.755    c0,4.199,3.405,7.604,7.604,7.604c4.199,0,7.604-3.405,7.604-7.604v-17.4l167.985,167.985c1.425,1.427,3.36,2.227,5.376,2.227    c2.017,0,3.951-0.801,5.377-2.227L429.36,274.358v56.257L302.523,457.461h-93.042L82.638,330.619v-13.514    c0-4.199-3.405-7.604-7.604-7.604c-4.199,0-7.604,3.405-7.604,7.604v187.291c0,4.199,3.405,7.604,7.604,7.604    c4.199,0,7.604-3.405,7.604-7.604v-31.727h14.953v31.727c0,4.199,3.405,7.604,7.604,7.604s7.604-3.405,7.604-7.604v-31.727h14.953    v31.727c0,4.199,3.405,7.604,7.604,7.604s7.604-3.405,7.604-7.604v-31.727h14.953v31.727c0,4.199,3.405,7.604,7.604,7.604    c4.199,0,7.604-3.405,7.604-7.604v-31.727h14.953v31.727c0,4.199,3.405,7.604,7.604,7.604s7.604-3.405,7.604-7.604v-31.727h3.01    c0.014,0,0.027,0.002,0.042,0.002s0.027-0.002,0.042-0.002h11.86v31.727c0,4.199,3.405,7.604,7.604,7.604s7.604-3.405,7.604-7.604    v-31.727h14.95v31.727c0,4.199,3.405,7.604,7.604,7.604s7.604-3.405,7.604-7.604v-31.727h14.953v31.727    c0,4.199,3.405,7.604,7.604,7.604s7.604-3.405,7.604-7.604v-31.727h11.865c0.014,0,0.027,0.002,0.042,0.002    s0.027-0.002,0.042-0.002h3.004v31.727c0,4.199,3.405,7.604,7.604,7.604s7.604-3.405,7.604-7.604v-31.727h14.953v31.727    c0,4.199,3.405,7.604,7.604,7.604c4.199,0,7.604-3.405,7.604-7.604v-31.727h14.953v31.727c0,4.199,3.405,7.604,7.604,7.604    s7.604-3.405,7.604-7.604v-31.727h14.953v31.727c0,4.199,3.405,7.604,7.604,7.604s7.604-3.405,7.604-7.604v-31.727h14.953v31.727    c0,4.199,3.405,7.604,7.604,7.604c4.199,0,7.604-3.405,7.604-7.604V7.604H444.568z M82.638,457.462V352.126l105.336,105.336    H82.638z M429.36,457.461H324.03l105.33-105.338V457.461z M82.638,54.539H187.98L82.638,159.873V54.539z M429.36,237.642    l-83.761-83.761c-2.97-2.97-7.784-2.97-10.753,0c-2.971,2.97-2.971,7.784-0.001,10.754L426.21,256L255.999,426.212L85.787,256    L255.999,85.788l56.541,56.542c2.97,2.97,7.784,2.97,10.753,0c2.97-2.97,2.97-7.784,0-10.753l-61.918-61.919    c-1.425-1.427-3.36-2.227-5.376-2.227c-2.017,0-3.951,0.801-5.377,2.227L82.638,237.643V181.38L209.489,54.539h93.027    L429.36,181.383V237.642z M429.36,159.876L324.023,54.539H429.36V159.876z" fill="#FFFFFF"/>
	</g>
</g>
<g>
</g>
<g>
</g>
<g>
</g>
<g>
</g>
<g>
</g>
<g>
</g>
<g>
</g>
<g>
</g>
<g>
</g>
<g>
</g>
<g>
</g>
<g>
</g>
<g>
</g>
<g>
</g>
<g>
</g>
</svg>
