<?xml version="1.0"?>
<svg xmlns="http://www.w3.org/2000/svg" height="512px" viewBox="0 -16 480 480" width="512px"><path d="m212.3125 85.128906c-4.042969 1.609375-6.054688 6.15625-4.53125 10.230469 1.523438 4.078125 6.023438 6.1875 10.128906 4.753906 14.230469-5.34375 29.917969-5.34375 44.144532 0 4.109374 1.433594 8.609374-.675781 10.132812-4.753906 1.523438-4.074219-.488281-8.621094-4.53125-10.230469-17.84375-6.679687-37.5-6.679687-55.34375 0zm0 0" fill="#FFFFFF"/><path d="m287.832031 67.816406c3.683594-.003906 6.890625-2.523437 7.765625-6.101562s-.808594-7.292969-4.078125-8.996094c-32.308593-16.734375-70.730469-16.734375-103.039062 0-2.621094 1.269531-4.34375 3.859375-4.503907 6.765625-.15625 2.90625 1.273438 5.667969 3.742188 7.214844 2.464844 1.546875 5.574219 1.628906 8.121094.222656 27.691406-14.347656 60.628906-14.347656 88.320312 0 1.132813.585937 2.394532.894531 3.671875.894531zm0 0" fill="#FFFFFF"/><path d="m310.3125 35.734375c3.59375.011719 6.757812-2.378906 7.726562-5.839844.972657-3.460937-.488281-7.148437-3.566406-9.007812-45.742187-27.847657-103.203125-27.847657-148.945312 0-3.777344 2.292969-4.984375 7.21875-2.691406 10.996093 2.292968 3.78125 7.214843 4.988282 10.996093 2.695313 40.636719-24.769531 91.699219-24.769531 132.335938 0 1.25.757813 2.683593 1.15625 4.144531 1.15625zm0 0" fill="#FFFFFF"/><path d="m432 120.121094h-384c-26.5.027344-47.9726562 21.5-48 48v200c.03125 26.496094 21.503906 47.96875 48 48v24c0 4.417968 3.582031 8 8 8h64c4.417969 0 8-3.582032 8-8v-24h224v24c0 4.417968 3.582031 8 8 8h64c4.417969 0 8-3.582032 8-8v-24c26.496094-.03125 47.96875-21.503906 48-48v-200c-.027344-26.5-21.5-47.972656-48-48zm-320 312h-48v-16h48zm304 0h-48v-16h48zm48-64c0 17.671875-14.328125 32-32 32h-384c-17.671875 0-32-14.328125-32-32v-200c0-17.675782 14.328125-32 32-32h384c17.671875 0 32 14.324218 32 32zm0 0" fill="#FFFFFF"/><path d="m368 152.121094h-320c-8.835938 0-16 7.164062-16 16v200c0 8.835937 7.164062 16 16 16h320c8.835938 0 16-7.164063 16-16v-200c0-8.835938-7.164062-16-16-16zm-320 216v-200h320v200zm0 0" fill="#FFFFFF"/><path d="m424 168.121094c-13.253906 0-24 10.746094-24 24s10.746094 24 24 24 24-10.746094 24-24-10.746094-24-24-24zm0 32c-4.417969 0-8-3.582032-8-8 0-4.417969 3.582031-8 8-8s8 3.582031 8 8c0 4.417968-3.582031 8-8 8zm0 0" fill="#FFFFFF"/><path d="m424 232.121094c-13.253906 0-24 10.746094-24 24s10.746094 24 24 24 24-10.746094 24-24-10.746094-24-24-24zm0 32c-4.417969 0-8-3.582032-8-8 0-4.417969 3.582031-8 8-8s8 3.582031 8 8c0 4.417968-3.582031 8-8 8zm0 0" fill="#FFFFFF"/><path d="m432 304.121094h-16c-4.417969 0-8 3.582031-8 8 0 4.417968 3.582031 8 8 8h16c4.417969 0 8-3.582032 8-8 0-4.417969-3.582031-8-8-8zm0 0" fill="#FFFFFF"/><path d="m104 264.121094c2.121094 0 4.15625-.84375 5.65625-2.34375l52-52c3.125-3.125 3.128906-8.191406.003906-11.316406s-8.191406-3.128907-11.316406-.003907l-52 52c-2.292969 2.285157-2.980469 5.730469-1.742188 8.722657 1.238282 2.992187 4.160157 4.941406 7.398438 4.941406zm0 0" fill="#FFFFFF"/><path d="m154.34375 242.457031-56 56c-2.078125 2.007813-2.914062 4.980469-2.179688 7.777344.730469 2.800781 2.914063 4.984375 5.710938 5.714844 2.796875.734375 5.773438-.101563 7.78125-2.179688l56-56c3.03125-3.140625 2.988281-8.128906-.097656-11.214843-3.085938-3.085938-8.074219-3.128907-11.214844-.097657zm0 0" fill="#FFFFFF"/></svg>
