<?xml version="1.0"?>
<svg xmlns="http://www.w3.org/2000/svg" height="512px" viewBox="-104 0 480 480" width="512px"><path d="m248 0h-224c-13.253906 0-24 10.746094-24 24v432c0 13.253906 10.746094 24 24 24h224c13.253906 0 24-10.746094 24-24v-432c0-13.253906-10.746094-24-24-24zm-232 24c0-4.417969 3.582031-8 8-8h224c4.417969 0 8 3.582031 8 8v136h-152v-24c0-4.417969-3.582031-8-8-8h-64c-4.417969 0-8 3.582031-8 8v24h-8zm72 136h-48v-16h48zm-72 48h16v48h-16zm240 248c0 4.417969-3.582031 8-8 8h-224c-4.417969 0-8-3.582031-8-8v-184h24c4.417969 0 8-3.582031 8-8v-64c0-4.417969-3.582031-8-8-8h-24v-16h240zm0 0" fill="#FFFFFF"/><path d="m152 288h80c4.417969 0 8-3.582031 8-8v-80c0-4.417969-3.582031-8-8-8h-80c-4.417969 0-8 3.582031-8 8v80c0 4.417969 3.582031 8 8 8zm8-80h64v64h-64zm0 0" fill="#FFFFFF"/><path d="m176 232h16c4.417969 0 8-3.582031 8-8s-3.582031-8-8-8h-16c-4.417969 0-8 3.582031-8 8s3.582031 8 8 8zm0 0" fill="#FFFFFF"/><path d="m208 248h-32c-4.417969 0-8 3.582031-8 8s3.582031 8 8 8h32c4.417969 0 8-3.582031 8-8s-3.582031-8-8-8zm0 0" fill="#FFFFFF"/></svg>
