<?xml version="1.0"?>
<svg xmlns="http://www.w3.org/2000/svg" height="512px" viewBox="0 -8 496 496" width="512px"><path d="m472 200h-120c2.292969 0 4.476562-.984375 5.992188-2.703125 1.519531-1.71875 2.226562-4.003906 1.945312-6.28125l-3.847656-31.015625h67.910156c13.253906 0 24-10.746094 24-24v-112c0-13.253906-10.746094-24-24-24h-192c-13.253906 0-24 10.746094-24 24v112c0 13.253906 10.746094 24 24 24h68l-3.902344 31c-.289062 2.273438.414063 4.558594 1.925782 6.277344 1.511718 1.722656 3.6875 2.714844 5.976562 2.722656h-160c4.417969 0 8-3.582031 8-8v-128c0-4.417969-3.582031-8-8-8h-96c-4.417969 0-8 3.582031-8 8v128c0 4.417969 3.582031 8 8 8h-24c-13.253906 0-24 10.746094-24 24s10.746094 24 24 24h24c-13.253906 0-24 10.746094-24 24v48c.011719 8.054688 4.0625 15.566406 10.785156 20-6.722656 4.433594-10.773437 11.945312-10.785156 20v96c0 13.253906 10.746094 24 24 24h96c13.253906 0 24-10.746094 24-24v-96c-.011719-8.054688-4.0625-15.566406-10.785156-20 6.722656-4.433594 10.773437-11.945312 10.785156-20v-48c0-13.253906-10.746094-24-24-24h312v224c0 4.417969 3.582031 8 8 8s8-3.582031 8-8v-224c13.253906 0 24-10.746094 24-24s-10.746094-24-24-24zm-248-64v-112c0-4.417969 3.582031-8 8-8h192c4.417969 0 8 3.582031 8 8v112c0 4.417969-3.582031 8-8 8h-192c-4.417969 0-8-3.582031-8-8zm116 24 2.976562 24h-29.90625l3.027344-24zm-188 296c0 4.417969-3.582031 8-8 8h-96c-4.417969 0-8-3.582031-8-8v-96c0-4.417969 3.582031-8 8-8h96c4.417969 0 8 3.582031 8 8zm0-184v48c0 4.417969-3.582031 8-8 8h-96c-4.417969 0-8-3.582031-8-8v-48c0-4.417969 3.582031-8 8-8h96c4.417969 0 8 3.582031 8 8zm-16-88h-8v-112h8zm-24 0h-8v-112h8zm-24 0h-8v-112h8zm-32-112h8v112h-8zm416 160h-448c-4.417969 0-8-3.582031-8-8s3.582031-8 8-8h448c4.417969 0 8 3.582031 8 8s-3.582031 8-8 8zm0 0" fill="#FFFFFF"/><path d="m112 288h-32c-4.417969 0-8 3.582031-8 8s3.582031 8 8 8h32c4.417969 0 8-3.582031 8-8s-3.582031-8-8-8zm0 0" fill="#FFFFFF"/><path d="m112 400h-32c-4.417969 0-8 3.582031-8 8s3.582031 8 8 8h32c4.417969 0 8-3.582031 8-8s-3.582031-8-8-8zm0 0" fill="#FFFFFF"/></svg>
