<?xml version="1.0"?>
<svg xmlns="http://www.w3.org/2000/svg" height="512px" viewBox="0 -88 480.416 480" width="512px"><path d="m326.230469 98.933594c-1.519531-1.738282-3.714844-2.734375-6.023438-2.734375v-24h88.207031c10.332032 13.773437 28.316407 19.390625 44.652344 13.945312 16.332032-5.441406 27.347656-20.726562 27.347656-37.945312s-11.015624-32.503907-27.347656-37.949219c-16.335937-5.441406-34.320312.175781-44.652344 13.949219h-91.628906c-2-4.585938-4.820312-8.765625-8.320312-12.335938-9.359375-9.320312-22.71875-13.417969-35.695313-10.953125-12.976562 2.46875-23.898437 11.183594-29.183593 23.289063h-70.800782c-2-4.585938-4.820312-8.765625-8.320312-12.335938-9.359375-9.320312-22.71875-13.417969-35.695313-10.953125-12.976562 2.46875-23.898437 11.183594-29.183593 23.289063h-27.585938c-10.332031-13.773438-28.316406-19.390625-44.648438-13.949219-16.335937 5.445312-27.351562 20.730469-27.351562 37.949219s11.015625 32.503906 27.351562 37.945312c16.332032 5.445313 34.316407-.171875 44.648438-13.945312h24.207031v8c0 4.417969 3.582031 8 8 8s8-3.582031 8-8v-8h48v24c-2.308593 0-4.503906.996093-6.023437 2.734375l-144.808594 165.449218c-6.214844 7.09375-7.699219 17.167969-3.792969 25.753907 3.90625 8.585937 12.476563 14.085937 21.90625 14.0625h425.464844c9.417969 0 17.96875-5.503907 21.859375-14.082031 3.890625-8.578126 2.40625-18.640626-3.796875-25.726563zm113.976562-74.734375c13.253907 0 24 10.746093 24 24 0 13.253906-10.746093 24-24 24-13.253906 0-24-10.746094-24-24 0-13.253907 10.746094-24 24-24zm-39.199219 16c-1.078124 5.277343-1.078124 10.722656 0 16h-80.800781v-16zm-120.800781-24c6.339844 0 12.421875 2.5 16.929688 6.960937.3125.3125.496093.710938.800781 1.039063h-35.59375c4.542969-5.089844 11.042969-8 17.863281-8zm24 24v16h-128v-16zm-168-24c6.339844 0 12.421875 2.5 16.929688 6.960937.3125.3125.496093.710938.800781 1.039063h-35.59375c4.542969-5.089844 11.042969-8 17.863281-8zm-96 56c-13.253906 0-24-10.746094-24-24 0-13.253907 10.746094-24 24-24 13.253907 0 24 10.746093 24 24 0 13.253906-10.746093 24-24 24zm39.199219-16c1.078125-5.277344 1.078125-10.722657 0-16h80.800781v16zm96.800781 16h64v8c0 4.417969 3.582031 8 8 8s8-3.582031 8-8v-8h48v24c-2.308593 0-4.503906.996093-6.023437 2.734375l-57.976563 66.25-57.984375-66.25c-1.515625-1.734375-3.707031-2.730469-6.015625-2.734375zm-22.632812 192h-90.855469l105.488281-120.566407 45.441407 51.917969zm-133.367188 19.3125c-1.335937-2.863281-.84375-6.242188 1.25-8.609375l142.382813-162.703125h8.734375l57.011719 65.128906-5.3125 6.070313-50.042969-57.183594c-1.558594-1.664063-3.738281-2.609375-6.023438-2.609375-2.28125 0-4.460937.945312-6.023437 2.609375l-123.121094 140.71875c-2.0625 2.363281-2.554688 5.714844-1.257812 8.574218 1.296874 2.855469 4.144531 4.691407 7.285156 4.691407h102.316406c.03125 2.730469.527344 5.4375 1.472656 8h-121.390625c-3.144531.023437-6-1.816407-7.28125-4.6875zm440.050781 0c-1.273437 2.875-4.136718 4.722656-7.28125 4.695312h-281.511718c-3.140625 0-5.988282-1.835937-7.285156-4.699219-1.296876-2.859374-.800782-6.210937 1.269531-8.574218l142.390625-162.734375h8.734375l142.402343 162.726562c2.082032 2.359375 2.566407 5.730469 1.230469 8.578125zm0 0" fill="#FFFFFF"/><path d="m318.230469 126.238281c-1.558594-1.667969-3.738281-2.617187-6.023438-2.617187-2.28125 0-4.464843.949218-6.023437 2.617187l-123.113282 140.695313c-2.0625 2.363281-2.554687 5.714844-1.257812 8.574218 1.296875 2.855469 4.144531 4.691407 7.285156 4.691407h246.222656c3.136719 0 5.984376-1.835938 7.285157-4.691407 1.296875-2.859374.804687-6.210937-1.261719-8.574218zm-23.277344 137.960938-44.121094-50.398438 5.320313-6.074219 49.457031 56.472657zm-88.226563 0 33.480469-38.257813 33.488281 38.257813zm120.152344 0-60.101562-68.625 45.429687-51.917969 105.480469 120.542969zm0 0" fill="#FFFFFF"/></svg>
